<svg width="447.973" height="448.853" xmlns="http://www.w3.org/2000/svg"><path d="M372.001 205.717c11.582 75.218-50.538 147.2-138.75 160.78-88.21 13.582-169.105-36.385-180.686-111.601-11.58-75.216 50.542-147.2 138.75-160.78C279.527 80.535 360.42 130.501 372 205.717" fill="#7ac943"/><path d="M375.24 204.997c2.907 2.274 6.901 2.346 8.876.163 1.973-2.184 6.59-3.639 10.259-3.232l1.868.207c3.668.406 7.026-1.415 7.464-4.046.437-2.632-2.223-4.726-5.912-4.656l-2.863.056c-3.69.071-4.788-2.2-2.439-5.046l6.074-7.364c2.349-2.847 2.57-6.706.492-8.576-2.079-1.87-5.608-.999-7.844 1.937l-5.795 7.601c-2.235 2.935-3.545 2.363-2.908-1.273l.924-5.287c.637-3.636-.588-7.148-2.721-7.805-2.132-.657-4.487 1.763-5.231 5.377l-2.427 11.81c-.744 3.614-3.08 4.765-5.192 2.554-2.112-2.21-5.521-2.446-7.578-.526-2.058 1.92-1.362 5.352 1.546 7.625l13.407 10.481" fill="#f0d0b4"/><path d="M268.735 369.12c-10.92 6.122-24.675 9.04-36.98 10.237-2.263.219-4.531.385-6.804.461l-.086.002c-.372 0-1.202-.059-2.164-.116a65.257 65.257 0 00-1.958-.099c-10.276 7.837-25.351 13.794-47.644 13.794-26.448 0-52.954-6.594-70.058-22.555-23.446 2.82-37.692 6.541-37.692 10.62 0 8.812 66.523 15.956 148.587 15.956 23.16 0 45.079-.57 64.617-1.584-1.418-1.64-2.549-3.528-3.245-5.495-1.987-5.617.261-10.978 5.177-14.06 3.335-2.086 6.451-4.15 9.048-6.769-1.409 1.07-3.318 2.025-5.636 2.025-1.056 0-2.198-.198-3.416-.673-1.086 2.908-3.09 5.633-6.234 6.199-.49.088-.958.13-1.403.13-4.35 0-6.524-3.985-4.11-8.073m65.738 3.012c-1.048 3.398-4.62 5.29-7.975 6.077-.205 5.676-6.546 6.394-6.546 6.394-.179.237-.358.465-.534.684l-.013.018c-3.127 3.867-5.763 4.601-7.31 4.601-.943 0-1.482-.272-1.482-.272-2.77 2.096-4.968 2.911-6.71 2.911-6.023 0-6.62-9.706-6.62-9.709-.129 3.828-.946 8.019-2.342 11.581-.057.147-.117.294-.179.438 40.784-2.844 67.763-7.78 67.763-13.391 0-3.484-10.403-6.708-28.052-9.332" fill="#e5e5e5"/><path d="M369.94 201.24c-4.959 15.6-24.91 58.153-82.497-10.085l-7.236 40.948s87.05 52.661 107.332-24.038c-3.146.554-16.127-4.77-17.599-6.825" fill="#fbb03b"/><path d="M280.485 376.281c5.612-3.512 10.606-6.957 13.548-13.093 1.396-2.91 2.532-6.15 3.215-9.435 4.845-1.502 9.405-4.242 14.221-5.813 5.864-1.913 11.682-3.96 17.562-5.806 1.724 1.406 3.529 2.666 5.625 3.322l.308.07c-1.988 7.108-4.677 14.042-8.344 20.063 4.752-2.578 9.17.596 7.997 5.992-.814 3.748-4.589 5.8-8.12 6.628-.205 5.676-6.546 6.394-6.546 6.394-5.308 7.07-9.339 5.03-9.339 5.03-12.336 9.344-13.33-6.794-13.33-6.797-.129 3.828-.946 8.019-2.342 11.581-1.82 4.654-5.716 8.128-10.813 5.724-3.978-1.88-7.355-5.664-8.819-9.8-1.987-5.617.261-10.978 5.177-14.06" fill="#f0d0b4"/><path d="M306.016 379.237s-2.877 7.67 3.943 10.872l.653-.475s-6.521-4.16-4.596-10.397" fill="#c0a690"/><path d="M319.417 385.287l-.013.018.013-.018" fill="#b7b7b7"/><path d="M313.143 376.242s-1.935 8.137 6.261 9.063l.013-.018.534-.684s-7.295-.264-6.808-8.36M318.547 372.896s.485 6.5 5.644 6.5c.661 0 1.398-.108 2.224-.348l.082-.839s-1.072.464-2.442.464c-1.991 0-4.614-.978-5.508-5.777M327.19 365.308l-.57.281s-1.608 2.178-2.547 2.838c.571-.367 2.359-1.595 3.118-3.119m-3.118 3.119l-.18.11.18-.11" fill="#c0a690"/><path d="M312.7 246.468c21.376 4.977 24.404 43.468 20.144 60.135-4.263 16.67-2.628 32.221-2.628 32.221 8.667 5.779 4 11.333 4 11.333s-27.58-2.994-41.888 16.432c0 0-5.65 8.872-14.499 2.853l7.719-60.44 27.152-62.534" fill="#fbb03b"/><path d="M303.917 211.1s30.171 84.115-2.982 116.312l-12.752-14.416-6.378-66.879 12.742-24.226 9.37-10.791" fill="#fbb03b"/><path d="M298.37 214.863s29.437 66.508-1.091 112.3l-14.174-7.27 15.264-105.03" fill="#f7931e"/><path d="M297.104 225.49s4.328 4.002 2.164 14.891c0 0 15.425 32.674-3.273 32.674 0 0 20.88 26.214-1.448 51.326-22.332 25.11-42.998 24.667-42.998 24.667l-41.778-1.333-42.222-38.224v-49.27l4-66.73 27.112-3.334 15.555-1.11s24.221 14.222 25.779 14.666c1.554.444 35.553.444 35.553.444l16.89 6.223 4.666 15.11" fill="#f0d0b4"/><path d="M244.717 255.767c-.412 10.057-8.245 18.581-19.185 22.054a145.86 145.86 0 003.157 2.067c9.546-4.41 16.046-13.159 16.046-23.23 0-.3-.007-.597-.018-.891" fill="#c0a690"/><path d="M184.437 254.936c0 13.56 13.498 24.555 30.148 24.555 16.652 0 30.15-10.995 30.15-24.555 0-13.563-13.498-24.556-30.15-24.556-16.65 0-30.148 10.993-30.148 24.556M252.437 256.657c0 13.562 12.432 24.558 27.77 24.558 15.34 0 27.772-10.996 27.772-24.558 0-13.561-12.432-24.554-27.772-24.554-15.338 0-27.77 10.993-27.77 24.554" fill="#f0d0b4"/><path d="M298.09 254.956a2.133 2.133 0 00-2.131 2.133h.666a1.466 1.466 0 011.466-1.466 1.467 1.467 0 010 2.932 1.466 1.466 0 01-1.466-1.466h-.666a2.132 2.132 0 102.132-2.133M218.036 254.956c-1.176 0-2.13.955-2.132 2.133h.667a1.467 1.467 0 111.465 1.465 1.47 1.47 0 01-1.465-1.465h-.667a2.133 2.133 0 102.132-2.133" fill="#c0a690"/><path d="M297.527 320.684c-.216.296-.436.59-.662.888l.208.13c.138-.351.347-.658.604-.915l-.15-.103" fill="#c67618"/><path d="M290.163 318.188c-3.763 0-7.183 1.975-9.479 5.364-3.595 5.302-7.1 10.01-13.137 12.641-3.724 1.625-7.979 2.8-12.126 3.136.126.42.215.866.272 1.324 4.059-.366 8.212-1.537 11.854-3.126 6.037-2.631 9.542-7.34 13.137-12.642 2.296-3.389 5.717-5.362 9.481-5.362 1.398 0 2.843.272 4.296.845.824.325 1.628.73 2.404 1.204.226-.297.446-.592.662-.888a15.821 15.821 0 00-3.066-1.65c-1.453-.573-2.9-.846-4.298-.846" fill="#c0a690"/><path d="M268.735 369.12c-10.92 6.122-24.675 9.04-36.98 10.237-2.263.219-4.531.385-6.804.461-.316.011-1.207-.051-2.25-.114-1.936-.117-4.396-.235-4.665.123 2.62-3.475 5.235-6.951 7.85-10.431 4.78-6.361 9.69-12.64 14.414-19.047 1.02-1.382 1.976-2.812 3.023-4.177.974-1.273 2.882-4.528 4.349-5.099 1.39-.541 3.747-.31 5.232-.3 4.905.032 10.161-1.29 14.643-3.246 6.037-2.631 9.542-7.34 13.137-12.642 3.15-4.648 8.412-6.634 13.777-4.517 3.948 1.56 7.49 4.959 9.167 8.87 2.148 5.013-1.35 8.658-5.91 10.255-3.497 1.225-7.578 1.87-11.285 1.859.003 0 15.575 1.527 6.108 13.128 0 0 1.834 3.97-5.189 8.856 0 0-.916 6.106-6.413 6.106-.924 3.388-3.039 6.964-6.692 7.62-5.26.946-8.174-3.437-5.512-7.942" fill="#f0d0b4"/><path d="M285.833 349.21c-1.802 0-3.184.462-3.184.462a7.608 7.608 0 011.975-.267c4.93 0 7.917 5.075 7.917 5.075l.486-.615c-1.635-3.833-4.788-4.654-7.194-4.654M281.087 356.332c-.938 0-1.583.13-1.583.13l.304-.005c7.544.002 7.544 6.88 7.544 6.88l.697-.507c-.434-5.686-4.613-6.498-6.962-6.498M276.08 361.57c7.783 1.743 4.859 7.872 4.859 7.872l.812-.049c2.31-6.937-5.671-7.822-5.671-7.822M271.677 366.59l-.114.17.114-.17M271.563 366.76c-.671.884-2.828 2.36-2.828 2.36l-.292.543c1.497-.68 2.746-2.363 3.12-2.903" fill="#c0a690"/><path d="M247.544 340.66s-1.44-6.235-4.948 5.239c-3.508 11.477-14.664 47.5-69.497 47.5-54.83 0-109.91-28.339-80.945-109.73 30.453-85.58 60.573-96.737 92.453-96.737l4.284-3.296s-12.922 6.056-10.691 26.14c2.232 20.084 12.115 78.74-9.244 95.636 0 0 9.883 6.695 28.69 19.448 18.81 12.75 28.373 17.852 37.3 13.07 8.926-4.78 15.374-15.815 20.475 1.4l-7.877 1.33" fill="#fbb03b"/><path d="M158.724 299.715s29.213-6.155 5.123-112.539l13.418-.308s22.055 102.708-8.309 118.544l-10.232-5.697" fill="#f7931e"/><path d="M134.761 292.841c-13.66 0-26.474 8.64-27.646 40.234.074-1.826 1.881-36.808 31.228-36.814 7.99-.001 18.018 2.591 30.613 9.151l-10.232-5.697s.113-.024.317-.095c-6.593-3.297-15.608-6.779-24.28-6.779m-27.646 40.234l-.003.074.003-.074" fill="#c98d2f"/><path d="M159.041 299.62c-.204.07-.317.095-.317.095l10.232 5.697s-3.977-2.821-9.915-5.792" fill="#c67618"/><path d="M246.284 338.968c-.561 0-1.324.707-2.31 3.03l-.057.177 2.702-.35c.362-.353.72-.621 1.053-.752.741-.289 1.756-.357 2.767-.357.886 0 1.77.053 2.465.057h.172c.824 0 1.657-.037 2.495-.11l.117-.014-.267-1.32-7.877 1.331c-.23-.676-.464-1.139-.7-1.43-.157-.158-.344-.262-.56-.262" fill="#c0a690"/><path d="M255.57 340.664c-.837.072-1.67.11-2.494.11h-.172c-.695-.005-1.579-.058-2.465-.058-1.011 0-2.026.068-2.767.357-.333.13-.69.4-1.053.752l8.952-1.161" fill="#c0a690"/><path d="M246.14 338.81c-1.032 0-1.936 2.498-2.167 3.189.987-2.324 1.75-3.031 2.311-3.031.216 0 .403.104.56.261-.236-.294-.473-.418-.704-.418m9.281.518l-7.877 1.331 7.877-1.33" fill="#c98d2f"/><path d="M330.1 337.383c.063.932.116 1.441.116 1.441l-.116-1.441" fill="#ccc"/><path d="M320.417 334.503c-7.908 0-15.169 4.321-15.169 4.321 4.872-2.237 9.27-2.984 12.97-2.984 7.397.001 11.998 2.984 11.998 2.984s-.053-.51-.116-1.441l-.004-.053c-3.025-2.089-6.407-2.827-9.679-2.827" fill="#c98d2f"/><path d="M297.79 275.667l-.045.033c-.602.472-7.298 5.55-17.369 5.55-1.339 0-2.737-.089-4.188-.291a30.157 30.157 0 01-9.096-2.65c.423.272 8.42 5.36 17.51 5.36 4.84 0 9.99-1.441 14.474-5.82l-1.285-2.182" fill="#c0a690"/><path d="M297.79 275.664l-.045.036.046-.033-.002-.003m-30.713 2.633l.016.012a30.157 30.157 0 009.096 2.65c-2.85-.398-5.901-1.227-9.112-2.662M255.688 321.16a1 1 0 10-.001 1.999 1 1 0 00.001-1.999" fill="#c0a690"/><path d="M313.157 246.604c.55 2.97 1.06 6.048 1.508 9.19 5.05 27.84.828 46.287-4.057 57.314a49.42 49.42 0 01-3.152 6.095c-2.716 4.51-5.05 6.754-5.419 7.096l-.046.048c.246.346.48.7.696 1.06 27.616-31.022 12.18-80.295 12.18-80.295l-1.71-.508" fill="#c98d2f"/><path d="M312.7 246.468c.77 3.217 1.421 6.328 1.965 9.325-.448-3.141-.958-6.22-1.508-9.189l-.457-.136m-2.092 66.64a55.002 55.002 0 01-3.152 6.095 49.42 49.42 0 003.152-6.095m-8.57 13.19l-.05.044.003.005.046-.048" fill="#c98d2f"/><path d="M301.988 326.342l-.001.002.696 1.068.004-.006c-.216-.36-.45-.713-.696-1.06l-.003-.004" fill="#c0a690"/><path d="M250.281 331.363L240 319.42l10.708-1.675" fill="#7d7b7d"/><path d="M354.59 261.823v64.802l-104.309 4.738-2.584-64.148 106.894-5.392" fill="#979397"/><path d="M354.59 326.625l-104.309 4.738L240 319.42l.333 3.683 9.703 11.374 103.743-4.685.812-3.167" fill="#636364"/><path d="M273.965 333.235c2.55-2.394 4.627-5.263 6.719-8.35 3.15-4.648 8.412-6.634 13.777-4.517 3.948 1.56 7.49 4.959 9.167 8.87.599 1.398.747 2.687.565 3.857-10.076-.003-23.517 5.822-30.228.14" fill="#f0d0b4"/><path d="M241.139 297.448l5.664-1.692 1.392 8.577-6.288 1.227-.768-8.112" fill="#f7931e"/><path d="M249.655 290.745c-1.416 3.408-.423 7.276 2.208 8.598 2.632 1.321 5.262 5.384 5.848 9.028l.298 1.856c.584 3.644 3.235 6.396 5.888 6.117 2.654-.279 3.964-3.401 2.912-6.939l-.817-2.745c-1.05-3.537.845-5.2 4.215-3.695l8.714 3.894c3.371 1.504 7.15.69 8.398-1.81 1.25-2.501-.53-5.67-3.955-7.046l-8.87-3.56c-3.423-1.374-3.22-2.788.453-3.143l5.344-.516c3.673-.353 6.732-2.47 6.796-4.701.065-2.232-2.894-3.856-6.576-3.61l-12.03.803c-3.681.248-5.412-1.697-3.844-4.323 1.567-2.624.887-5.973-1.512-7.445-2.398-1.47-5.521.113-6.937 3.521l-6.533 15.716" fill="#f0d0b4"/><path d="M247.697 289.885s-56.058-20.372-86.558-91.796l-20.058 45.979s35.95 57.685 109.114 68.928l-2.498-23.11" fill="#fbb03b"/><path d="M251.08 55.783l4.07-10.815-1.3-.49-4.07 10.815M244.27 54.44l3.074-11.099-1.339-.372-3.074 11.1M232.496 53.096l.576-11.501-1.388-.07-.576 11.502M227.31 53.312l-1.615-11.401-1.375.194 1.615 11.403M222.221 53.837l-3.232-11.054-1.333.39 3.232 11.054M217.008 54.955l-4.857-10.442-1.26.586 4.857 10.441M210.637 56.761L205.78 46.32l-1.26.585 4.856 10.443M238.099 53.477l2.161-11.257-1.364-.261-2.161 11.257M299.805 144.39s14.818-27.62-12.802-63.014l6.844 61.49 5.958 1.523" fill="#a9824f"/><path d="M221.117 51.027c38.924-3.763 73.962 24.466 78.255 63.049a68.984 68.984 0 01-2.221 26.677l.018-.004s39.719 49.194-1.232 84.867c0 0-7.09 16.439-46.486 20.548-39.492 3.527-50.06-11.216-50.06-11.216-47.932-27.079-29.69-76.13-29.69-76.13l.023-.006c-6.015-9.076-10.03-19.63-11.31-31.11-4.297-38.583 23.78-72.911 62.703-76.675M248.328 246.287c.384-.038.745-.083 1.123-.123.366-.033.718-.057 1.09-.093l-2.213.216" fill="#f0d0b4"/><path d="M167.775 166.023l-.003.013.003-.013m-.007.033l-.01.041.01-.041m-.01.043c-1.046 5.144-1.97 12.605-1.151 21.013h.001c-.819-8.408.104-15.868 1.15-21.013" fill="#86c151"/><path d="M182.91 222.468v.001c3.013 3.091 6.542 6.071 10.658 8.87-4.115-2.799-7.645-5.78-10.659-8.871" fill="#e6c7ac"/><path d="M166.608 187.112h-.001c1.088 11.175 5.254 24.025 16.302 35.357v-.001c-11.048-11.33-15.213-24.18-16.301-35.356" fill="#ec9533"/><path d="M303.732 217.527h-.001.001m-.265.33l-.004.006.004-.006m-.272.334l-.003.004.003-.004m-.623.745l-.01.01.01-.01m-.281.33l-.014.014.014-.015m-.286.327l-.017.019.017-.019m-.081.092l-.007.01.007-.01m-.207.235l-.022.024.022-.024m-.08.09l-.02.022.02-.022m-.213.236l-.024.027.024-.027m-.08.09l-.028.029.028-.03m-.084.093l-.015.016.015-.016m-.13.142l-.03.032.03-.032m-.083.09l-.032.036.032-.036m-.086.093l-.033.036.033-.036m-.13.14l-.031.035.03-.035" fill="#efad4a"/><path d="M300.745 220.985l-.034.036.034-.036m-.086.092l-.036.038.036-.038m-.136.144l-.03.031.03-.03m-.083.087l-.035.038.035-.038m-.088.092l-.04.042.04-.042m-.133.14l-.035.038.035-.038m-.087.092l-.04.039.04-.039m-.09.091l-.043.045.044-.045m-.094.097l-.064.066.064-.066m-.129.132l-.043.044.043-.044m-.093.096l-.043.044.043-.044m-.092.095l-.046.044.046-.044m-.134.133l-.042.044.042-.044m-.09.092l-.05.05.05-.05m-.096.096l-.055.055.055-.055m-.124.124l-.055.055.055-.055m-.103.102l-.052.052.052-.052m-.096.094l-.059.059.059-.059m-.097.098l-.09.086.09-.086m-.127.122l-.061.06.061-.06m-.103.102l-.062.06.062-.06m-.096.093l-.093.09.093-.09m-.132.127l-.061.06.061-.06m-.102.1l-.06.056.06-.056m-.1.096l-.095.088.095-.088m-.126.117l-.069.067.07-.067m-.111.107l-.06.054.06-.054m-.102.096l-.069.065.07-.065m-.131.121l-.066.061.066-.061m-.107.1l-.061.057.061-.057m-.104.097l-.077.071.077-.07m-.103.094l-.097.09.097-.09m-.133.124l-.07.063.07-.063m-.108.097l-.075.07.075-.07m-.104.096l-.101.092.101-.092" fill="#ec9533"/><path d="M296.936 224.73l-.03.029.03-.03" fill="#efad4a"/><path d="M296.973 224.695l-.037.034.037-.034" fill="#ec9533"/><path d="M296.863 224.796l-.072.065.072-.065m-.104.093l-.104.094.104-.094m-.13.118l-.08.07.08-.07m-.117.104l-.073.065.073-.065m-.11.097l-.103.092.104-.092m-.124.11l-.086.075.086-.074m-.124.108l-.075.066.075-.066m-.11.096l-.108.093.108-.093m-.108.094l-.001.002.001-.002m-102.358 5.73l.109.073-.11-.073m.125.084l.109.074-.11-.074m.122.082l.368.246-.368-.246m.385.259l.103.067-.103-.067m.13.085l.093.062-.093-.062m.125.082l.093.062-.093-.062m.12.08l.119.078-.119-.078m.12.078l.124.082-.124-.082m.144.094l.101.066-.101-.066m.135.089l.086.055-.086-.055m.128.081l.081.054-.081-.054m.122.079l.083.055-.083-.055m.123.08l.105.067-.105-.067m.12.077l.12.076-.12-.076m.164.104l.079.05-.079-.05m.128.082l.072.045-.072-.045m.125.078l.071.044-.07-.044m.122.078l.073.045-.073-.045m.123.077l.096.06-.096-.06m.157.097l.083.052-.083-.052m.136.086l.072.044-.072-.044m.127.077l.069.043-.07-.043m.126.077l.067.042-.067-.042m.124.078l.07.042-.07-.042m.125.076l.119.072-.119-.072m.163.098l.081.05-.081-.05m.137.083l.07.041-.07-.041m.128.077l.066.04-.066-.04m.126.076l.066.04-.066-.04m.129.076l.07.043-.07-.043m.124.075l.121.07-.121-.07m.173.103l.074.044-.074-.044m.134.078l.068.04-.068-.04m.128.075l.069.041-.07-.041M198.304 234.324l.07.041-.07-.041m.127.073l.089.052-.09-.052m.129.075l.128.075-.128-.075m.165.096l.09.052-.09-.052m.14.081l.083.047-.083-.047m.133.076l.082.046-.082-.046m.132.075l.086.05-.086-.05m.131.075l.13.073-.13-.073m.132.074c.084.119 4.787 6.526 19.333 9.831-14.545-3.307-19.249-9.712-19.333-9.83" fill="#e6c7ac"/><path d="M302.26 148.208c-12.033 18.436-38.73 22.033-60.037 25.07-8.5 1.211-17.107 1.966-25.707 1.966-6.225 0-12.448-.396-18.617-1.301-11.555-1.696-20.262-6.363-29.12-12.139-.31 1.13-.663 2.55-1.004 4.219l-.003.013-.004.02-.01.041v.002c-1.046 5.145-1.969 12.605-1.15 21.013 1.088 11.176 5.253 24.025 16.301 35.356 3.014 3.09 6.544 6.072 10.659 8.87l.01.009.11.073.015.01.109.075.012.008.368.246.017.013.103.067.027.018.093.062.032.02.093.062.027.018.119.078h.001l.124.082.02.012.101.066.034.023.086.055.042.026.081.054.041.025.083.055.04.025.105.067.015.01.12.076.044.028.079.05.049.032.072.045.053.033.071.044.052.034.073.045.05.032.096.06.061.037.083.052.053.034.072.044.055.033.069.043.056.034.067.042.057.036.07.042.055.034.119.072.044.026.081.05.056.033.07.041.058.036.066.04.06.036.066.04.063.036.07.043.054.032.121.07.052.033.074.044.06.034.068.04.06.035.069.041.06.035.07.041.057.032.089.052.039.023.128.075.037.021.09.052.05.03.083.046.05.03.082.045.05.029.086.05.045.025.13.073.002.001c.084.119 4.788 6.524 19.333 9.831 5.074 1.153 11.344 1.93 19.034 1.93 3.576 0 7.464-.169 11.676-.546 39.122-4.073 46.398-20.31 46.501-20.545l.001-.002v-.001l.108-.093.035-.03.075-.066.038-.034.086-.074.02-.019.104-.092.036-.032.073-.065.037-.034.08-.07.026-.024.104-.094.032-.028.072-.065.042-.037.031-.03.037-.034.034-.03.101-.092.03-.026.074-.07.039-.034.069-.063.036-.033.097-.091.026-.024.077-.07.043-.04.061-.058.041-.039.066-.061.061-.056.07-.065.04-.042.06-.054.042-.04.07-.067.03-.03.095-.087.04-.04.06-.056.041-.04.061-.06.039-.038.093-.089.034-.033.062-.06.042-.042.061-.06.037-.036.09-.086.038-.039.059-.059.044-.042.052-.052.048-.047.055-.055.069-.069.055-.055.046-.046.05-.05.048-.048.042-.044.088-.089.046-.044.049-.05.043-.045.05-.052.043-.044.065-.066.064-.066.05-.052.044-.045.049-.052.04-.039.052-.054.035-.038.093-.098.04-.042.053-.054.035-.038.053-.057.03-.03.1-.107.036-.038.052-.056.034-.036.055-.058.03-.035.098-.104.033-.036.054-.057.032-.036.053-.058.03-.032.115-.126.015-.016.056-.063.028-.03.056-.062.024-.027.193-.214.02-.022.058-.066.022-.024.2-.226.007-.009.064-.073.017-.019.272-.312.014-.015.27-.318.011-.011c.21-.247.415-.493.62-.741l.003-.004.268-.328.004-.006.264-.33h.001c20.472-25.727 6.843-55.676-1.472-69.319" fill="#e6c7ac"/><path d="M288.768 178.621c-.001 0-.084.039-.259.116-2.629 1.166-24.933 10.646-50.518 10.639-9.25 0-18.923-1.236-28.258-4.527a.999.999 0 10-.664 1.887c9.596 3.383 19.496 4.639 28.922 4.64 27.808-.01 51.54-10.91 51.61-10.937a.999.999 0 10-.833-1.817M278.559 197.476l.02.03c.249.351 2.481 3.863 2.464 7.833-.011 2.4-.747 4.946-3.216 7.349-2.474 2.4-6.772 4.645-13.923 6.087-5.539 1.118-10.032 1.609-13.65 1.609-3.36 0-5.962-.424-7.955-1.137-2.99-1.082-4.626-2.744-5.63-4.819-.996-2.077-1.297-4.632-1.294-7.327 0-.362.005-.725.016-1.089a1 1 0 00-2-.055c-.011.382-.016.763-.016 1.144.001 1.89.133 3.78.573 5.579.65 2.69 2.048 5.205 4.67 6.957 2.62 1.756 6.353 2.746 11.637 2.747 3.797-.001 8.412-.512 14.045-1.648 7.381-1.492 12.053-3.841 14.917-6.61 2.87-2.766 3.838-5.962 3.826-8.787-.018-5.006-2.8-8.926-2.844-9.008a1.002 1.002 0 00-1.394-.247c-.452.316-.561.94-.246 1.392M267.407 193.879s-10.118 4.54-24.83 2.264c0 0 17.027 5.969 24.83-2.264" fill="#baa08c"/><path d="M295 182.687s3.85-13.832-10.528-6.524c0 0 11.76-5.156 10.528 6.524M213.185 180.36s-16.453-2.333-6.385 11.315c0 0-7.281-11.259 6.385-11.315" fill="#baa08c"/><path d="M168.12 83.97s-12.66 42.018 1.581 74.847l-4.326.164s-21.903-39.485 2.745-75.01" fill="#a9824f"/><path d="M165.83 142.657s-6.975-15.209-20.962-5.962c-17.451 11.537 10.075 23.18 10.075 23.18s8.696 3.801 4.357 12.569c-4.34 8.767-4.73 12.092-1.472 13.552 3.252 1.45 10.527-.836 11.421-6.253 3.871-23.374-3.42-37.086-3.42-37.086" fill="#f0d0b4"/><path d="M165.29 158.895s-10.762-30.659-13.074-7.371c0 0 3.925-12.755 13.073 7.37" fill="#baa08c"/><path d="M165.375 158.981s-8.178-15.453-6.283 3.778c0 0 .068-12.25 6.283-3.778M166.393 184.267s4.482-2.276 5.896-4.82c0 0-.958 4.24-5.72 7.374l-.176-2.554M235.099 164.135s21.846 24.922 39.228-7.599c0 0-15.09 21.28-39.228 7.599M297.295 224.4s-21.815 30.004-84.762 19.18c0 0 56.339 18.613 86.543-14.49l-1.781-4.69" fill="#baa08c"/><path d="M266.557 136.183c-.596-2.794 1.344-5.499 4.342-6.051 3.004-.555 5.906 1.255 6.509 4.053.577 2.792-1.363 5.502-4.357 6.056-2.999.552-5.908-1.266-6.494-4.058" fill="#6abc45"/><path d="M269.53 135.695c-.303-1.435.694-2.818 2.23-3.11 1.541-.282 3.033.648 3.34 2.084.303 1.434-.697 2.827-2.237 3.11-1.538.285-3.03-.652-3.332-2.084" fill="#231f20"/><path d="M272.859 133.715c-.158-.73.35-1.431 1.129-1.575.781-.143 1.537.328 1.693 1.055.156.728-.352 1.434-1.13 1.581-.784.139-1.539-.336-1.692-1.061" fill="#fff"/><path d="M205.021 144.101c-.781-3.672 1.768-7.229 5.711-7.956 3.948-.729 7.768 1.651 8.557 5.33.762 3.672-1.789 7.234-5.729 7.962-3.94.727-7.765-1.664-8.539-5.336" fill="#6abc45"/><path d="M208.935 143.461c-.402-1.886.909-3.706 2.932-4.089 2.024-.37 3.984.853 4.39 2.739.396 1.886-.918 3.72-2.942 4.088-2.023.376-3.984-.856-4.38-2.738" fill="#231f20"/><path d="M213.307 140.857c-.203-.961.464-1.881 1.488-2.07 1.025-.188 2.02.432 2.226 1.386.203.959-.462 1.887-1.488 2.078-1.03.184-2.025-.442-2.226-1.394" fill="#fff"/><path d="M289.416 120.564c-.332 0-.667.028-1.005.087l-26.303 4.572c-3.199.556-5.379 3.632-4.84 6.836l1.48 8.808c.487 2.89 3.03 4.965 5.879 4.965.306 0 .618-.024.93-.073l26.244-4.196c3.208-.514 5.406-3.556 4.887-6.762l-1.513-9.332a5.845 5.845 0 00-5.759-4.905m-17.444 19.776c-2.59 0-4.899-1.703-5.415-4.157-.596-2.794 1.344-5.499 4.342-6.051.364-.068.728-.1 1.085-.1 2.59 0 4.895 1.695 5.424 4.153.577 2.792-1.363 5.502-4.357 6.056a6.08 6.08 0 01-1.079.099" fill="#f6e3d2"/><path d="M271.984 130.032c-.357 0-.721.032-1.085.1-2.998.552-4.938 3.257-4.342 6.05.516 2.455 2.826 4.158 5.415 4.158a6.08 6.08 0 001.079-.099c2.994-.554 4.934-3.264 4.357-6.056-.53-2.458-2.833-4.153-5.424-4.153m1.137 2.612c.206-.252.508-.437.867-.504l.281-.025c.675 0 1.274.441 1.412 1.08.118.546-.14 1.08-.604 1.376l.023.098c.303 1.434-.697 2.827-2.237 3.11-.186.034-.371.05-.555.05-1.327 0-2.51-.876-2.777-2.134-.304-1.435.693-2.818 2.229-3.11a3.026 3.026 0 011.361.059" fill="#a6d78f"/><path d="M272.312 132.535c-.18 0-.365.016-.552.05-1.536.292-2.533 1.675-2.23 3.11.267 1.258 1.451 2.134 2.778 2.134.184 0 .37-.016.555-.05 1.54-.283 2.54-1.676 2.237-3.11l-.023-.098c-.154.097-.332.169-.526.205l-.274.024c-.68 0-1.284-.445-1.418-1.085a1.257 1.257 0 01.262-1.071 3.017 3.017 0 00-.809-.11" fill="#7b7979"/><path d="M274.27 132.115l-.282.025a1.455 1.455 0 00-.867.504c-.24.293-.348.679-.262 1.07.134.64.738 1.086 1.418 1.086l.274-.024c.194-.036.372-.108.526-.205.464-.296.722-.83.604-1.376-.138-.639-.737-1.08-1.412-1.08" fill="#fff"/><path d="M233.435 127.992c-.174 0-.348.007-.523.023l-43.119 3.786c-3.236.286-5.376 3.127-4.757 6.315l2.727 14.021c.57 2.936 3.28 5.092 6.221 5.092.253 0 .508-.016.764-.048l42.025-5.408a5.685 5.685 0 004.907-6.581l-1.935-11.865c-.494-3.034-3.273-5.336-6.31-5.335m-21.294 21.575c-3.401 0-6.441-2.238-7.12-5.466-.781-3.672 1.768-7.229 5.711-7.956.479-.089.957-.13 1.428-.13 3.404-.002 6.435 2.228 7.13 5.46.76 3.672-1.79 7.234-5.73 7.962-.476.088-.95.13-1.419.13" fill="#f6e3d2"/><path d="M212.16 136.015c-.47 0-.95.041-1.428.13-3.943.727-6.492 4.284-5.71 7.956.678 3.228 3.718 5.466 7.12 5.466.467 0 .942-.042 1.418-.13 3.94-.728 6.49-4.29 5.73-7.962-.695-3.232-3.726-5.462-7.13-5.46m1.493 3.434a1.9 1.9 0 011.142-.662c.122-.023.245-.035.366-.035.887 0 1.679.581 1.86 1.421.152.719-.184 1.422-.794 1.808l.03.13c.396 1.886-.918 3.72-2.942 4.088-.244.046-.49.068-.731.068-1.744 0-3.301-1.152-3.65-2.806-.4-1.886.91-3.706 2.933-4.089a4.005 4.005 0 011.787.077" fill="#a6d78f"/><path d="M212.592 139.305a4.09 4.09 0 00-.725.067c-2.023.383-3.334 2.203-2.932 4.09.348 1.653 1.905 2.805 3.649 2.805.241 0 .487-.022.73-.068 2.025-.368 3.34-2.202 2.943-4.088l-.03-.13a1.946 1.946 0 01-1.054.302c-.893 0-1.689-.586-1.866-1.426a1.67 1.67 0 01.346-1.408 4.005 4.005 0 00-1.061-.144" fill="#7b7979"/><path d="M215.161 138.752c-.121 0-.244.012-.366.035a1.9 1.9 0 00-1.142.662 1.67 1.67 0 00-.346 1.408c.177.84.973 1.426 1.866 1.426a1.946 1.946 0 001.053-.301c.611-.387.947-1.09.795-1.809-.181-.84-.973-1.421-1.86-1.421" fill="#fff"/><path d="M237.927 139.683l-2.042-10.614-48.516 5.14 2.563 10.556-5.164.144-3.628-14.965 59.205-6.35 2.464 15.19-4.882.899M294.847 131.107l-1.459-9.214-35.123 5.267 1.462 9.141-2.935.296-2.287-13.77 41.323-6.195 1.961 14.177-2.942.298" fill="#72594b"/><path d="M248.467 128.327c4.025-.39 7.494 1.046 9.528 2.17v1.668c0 .447.148.864.401 1.215l-1.544 1.704c-.04-.028-3.683-2.812-7.925-2.373-2.591.265-4.984 1.704-7.112 4.276l-3.74-2.688c2.954-3.574 6.452-5.583 10.392-5.972" fill="#72594b"/><path d="M165.072 184.984s12.904-3.184 9.723-22.459l-3.69-1.676-4.021 2.85-2.012 21.285" fill="#f0d0b4"/><path d="M291.755 107.092l-.094 8.355s-19.517-4.643-34.013 4.208l-2.656-9.767s20.163-9.723 36.763-2.796M180.847 119.636l3.704 7.972s25.457-14.033 49.825-9.745l-.27-9.288s-26.527-6.55-53.26 11.061" fill="#a9824f"/><path d="M249.803 289.535l.392 23.461-9.086-1.672 2.211-23.317 6.483 1.528" fill="#f7931e"/><path d="M145.17 249.85c2.987 7.155 10.433 21.794 25.093 33.683a63.598 63.598 0 001.47-6.216c-12.994-10.749-21.834-21.234-26.562-27.468" fill="#c98d2f"/><path d="M171.733 277.317a63.598 63.598 0 01-1.47 6.216 78.878 78.878 0 008.484 6.002s1.598-2.65 2.13-4.711c0 0-2.02-1.62-5.145-4.297a179.456 179.456 0 01-3.999-3.21" fill="#c67618"/><path d="M143.544 245.493s.492 1.639 1.627 4.356c4.728 6.234 13.568 16.719 26.562 27.468a179.456 179.456 0 003.999 3.21c-8.77-7.512-26.248-23.346-32.188-35.034" fill="#c98d2f"/><path d="M367.77 201.577l20.743 4.979-2.122 7.713-20.255-5.138 1.635-7.554" fill="#f7931e"/></svg>