<svg width="447.973" height="448.853" xmlns="http://www.w3.org/2000/svg" style="--eyecol: #a6d78f; --bgcol: #7ac943;"><path d="M378.93 210.943c11.58 75.216-49.818 147.087-137.143 160.53-87.32 13.445-167.495-36.632-179.076-111.845-11.58-75.216 49.82-147.09 137.141-160.535 87.323-13.444 167.5 36.634 179.077 111.85" fill="var(--bgcol)"/><path d="M298.49 219.984s26.76 18.86 34.315 50.712l-24.144 1.32-10.172-52.032" fill="#fbb03b"/><path d="M208.136 400.601c-82.063 0-148.59-7.142-148.59-15.956 0-4.2 15.112-8.02 39.817-10.87 15.872 16.531 40.801 22.805 67.937 22.805 22.29 0 37.365-5.955 47.641-13.793.647.021 1.331.06 1.96.098.963.057 1.796.116 2.166.116l.081-.001c2.273-.076 4.543-.243 6.805-.461 12.304-1.198 26.06-4.115 36.979-10.238-2.413 4.087-.239 8.074 4.11 8.074.446 0 .915-.043 1.403-.131 3.144-.564 5.148-3.29 6.235-6.199 1.219.475 2.359.673 3.415.673 2.32 0 4.228-.954 5.638-2.025-2.597 2.62-5.713 4.683-9.048 6.77-4.917 3.081-7.164 8.443-5.177 14.061.696 1.967 1.824 3.853 3.245 5.493-19.538 1.017-41.457 1.584-64.617 1.584m80.823-2.564c.062-.145.121-.29.178-.438 1.396-3.563 2.215-7.752 2.342-11.58 0 .001.598 9.708 6.621 9.708 1.743-.002 3.94-.815 6.71-2.912 0 0 .54.273 1.483.273 1.547 0 4.182-.733 7.308-4.601l.014-.016c.176-.22.354-.448.533-.687 0 0 6.341-.716 6.547-6.393 3.354-.787 6.928-2.678 7.976-6.078 17.648 2.624 28.05 5.848 28.05 9.332 0 5.612-26.977 10.547-67.762 13.392" fill="#e5e5e5"/><path d="M274.685 379.464c5.612-3.513 10.604-6.959 13.547-13.095 1.399-2.908 2.533-6.15 3.213-9.434 4.847-1.503 9.407-4.243 14.222-5.812 5.864-1.915 11.682-3.962 17.562-5.808 1.724 1.406 3.528 2.666 5.626 3.322l.306.071c-1.986 7.107-4.677 14.041-8.344 20.063 4.754-2.58 9.17.596 7.998 5.992-.815 3.748-4.588 5.8-8.12 6.628-.206 5.677-6.547 6.393-6.547 6.393-5.307 7.07-9.339 5.03-9.339 5.03-12.336 9.345-13.33-6.792-13.33-6.796-.127 3.829-.946 8.018-2.342 11.58-1.82 4.654-5.716 8.129-10.812 5.725-3.976-1.88-7.354-5.664-8.817-9.799-1.987-5.618.26-10.98 5.177-14.06" fill="#f0d0b4"/><path d="M304.156 393.292c-6.82-3.204-3.943-10.874-3.943-10.874-1.924 6.238 4.596 10.397 4.596 10.397l-.653.477" fill="#c0a690"/><path d="M313.601 388.487c.004-.006.008-.011.014-.016l-.014.016" fill="#b7b7b7"/><path d="M313.601 388.487c-8.194-.927-6.26-9.063-6.26-9.063-.486 8.098 6.807 8.36 6.807 8.36l-.533.687c-.006.005-.01.01-.014.016M318.388 382.577c-5.157 0-5.643-6.498-5.643-6.498.894 4.797 3.516 5.776 5.507 5.776 1.372 0 2.443-.464 2.443-.464l-.083.838c-.824.242-1.563.348-2.224.348M318.09 371.718s.067-.038.18-.11a1.529 1.529 0 01-.18.11m.18-.11c.94-.66 2.547-2.837 2.547-2.837l.571-.282c-.759 1.526-2.545 2.753-3.117 3.119" fill="#c0a690"/><path d="M306.899 249.65c21.374 4.978 24.404 43.469 20.142 60.135-4.262 16.668-2.626 32.22-2.626 32.22 8.666 5.779 4 11.334 4 11.334s-27.582-2.995-41.888 16.432c0 0-5.652 8.871-14.499 2.854l7.72-60.44 27.15-62.534" fill="#fbb03b"/><path d="M298.115 214.281s30.172 84.115-2.982 116.312l-12.753-14.416-6.375-66.876 12.74-24.228 9.37-10.792" fill="#fbb03b"/><path d="M292.568 218.044s29.437 66.508-1.09 112.3l-14.173-7.268 15.263-105.032" fill="#f7931e"/><path d="M291.305 228.673s4.326 4.002 2.164 14.89c0 0 15.422 32.676-3.276 32.676 0 0 20.88 26.213-1.448 51.324-22.33 25.11-42.997 24.666-42.997 24.666l-41.777-1.333-42.223-38.223v-49.269l4-66.73 27.112-3.334 15.555-1.11s24.224 14.222 25.778 14.666c1.555.444 35.555.444 35.555.444l16.888 6.223 4.67 15.11" fill="#f0d0b4"/><path d="M222.888 283.072a156.79 156.79 0 01-3.157-2.068c10.937-3.473 18.773-11.999 19.184-22.055.012.295.017.594.017.891 0 10.07-6.501 18.82-16.044 23.232" fill="#c0a690"/><path d="M178.639 258.117c0 13.562 13.494 24.556 30.145 24.556 16.65 0 30.148-10.994 30.148-24.556 0-13.562-13.497-24.554-30.148-24.554-16.65 0-30.145 10.992-30.145 24.554M246.636 259.84c0 13.561 12.432 24.556 27.77 24.556 15.34 0 27.771-10.995 27.771-24.556 0-13.561-12.432-24.556-27.77-24.556-15.339 0-27.771 10.995-27.771 24.556" fill="#f0d0b4"/><path d="M292.29 262.404a2.134 2.134 0 010-4.267 2.133 2.133 0 010 4.267m-1.467-2.133a1.466 1.466 0 102.931.001 1.466 1.466 0 00-2.931-.001M212.237 262.404a2.134 2.134 0 010-4.267 2.133 2.133 0 010 4.267m-1.466-2.133a1.465 1.465 0 102.929 0 1.47 1.47 0 00-1.463-1.467 1.47 1.47 0 00-1.466 1.467" fill="#c0a690"/><path d="M291.27 324.883l-.207-.13c.226-.296.446-.592.661-.888l.15.103a2.691 2.691 0 00-.603.915" fill="#c67618"/><path d="M249.89 343.835a8.188 8.188 0 00-.27-1.324c4.148-.336 8.404-1.51 12.125-3.136 6.039-2.63 9.544-7.339 13.138-12.64 2.297-3.391 5.717-5.364 9.48-5.364 1.398 0 2.844.271 4.296.845 1.062.421 2.089.985 3.065 1.65a42.46 42.46 0 01-.661.887 15.633 15.633 0 00-2.404-1.204c-1.452-.573-2.896-.845-4.295-.845-3.763 0-7.184 1.975-9.481 5.364-3.594 5.301-7.099 10.01-13.138 12.64-3.642 1.59-7.794 2.761-11.854 3.127" fill="#c0a690"/><path d="M262.932 372.301c-10.919 6.123-24.675 9.04-36.979 10.238-2.262.218-4.532.385-6.805.46-.313.012-1.204-.05-2.247-.114-1.936-.117-4.397-.234-4.664.123 2.618-3.474 5.235-6.95 7.846-10.43 4.784-6.362 9.693-12.64 14.414-19.048 1.022-1.382 1.976-2.812 3.024-4.175.976-1.275 2.883-4.53 4.348-5.1 1.391-.542 3.751-.31 5.235-.299 4.904.03 10.159-1.292 14.641-3.248 6.039-2.63 9.544-7.339 13.138-12.64 3.15-4.65 8.414-6.634 13.776-4.519 3.948 1.56 7.489 4.959 9.166 8.87 2.148 5.013-1.349 8.658-5.909 10.256-3.497 1.226-7.577 1.869-11.283 1.859.003 0 15.572 1.526 6.107 13.127 0 0 1.833 3.973-5.19 8.857 0 0-.914 6.107-6.411 6.107-.926 3.388-3.04 6.963-6.694 7.619-5.257.945-8.174-3.438-5.513-7.943" fill="#f0d0b4"/><path d="M286.74 357.661s-2.985-5.074-7.916-5.074a7.56 7.56 0 00-1.975.268s1.38-.463 3.183-.463c2.404 0 5.557.821 7.192 4.655l-.484.614" fill="#c0a690"/><path d="M282.228 366.03l.021-.018v.001l-.021.016" fill="#c98d2f"/><path d="M281.55 366.518s.002-6.878-7.542-6.878c-.101 0-.201 0-.305.002 0 0 .646-.129 1.584-.129 2.348 0 6.525.812 6.962 6.5l-.021.016-.679.49M275.139 372.625s2.924-6.13-4.86-7.873c0 0 7.981.885 5.672 7.824l-.812.05M262.64 372.844l.292-.543s2.165-1.481 2.835-2.365c-.371.536-1.624 2.227-3.127 2.908m3.127-2.908a5.1 5.1 0 00.11-.165 1.42 1.42 0 01-.11.165" fill="#c0a690"/><path d="M241.745 343.841s-1.442-6.235-4.95 5.239c-3.508 11.477-14.664 47.5-69.495 47.5-54.834 0-100.654-25.613-80.948-109.728 17.966-76.683 60.575-96.737 92.453-96.737l4.283-3.298s-12.919 6.058-10.69 26.142c2.233 20.084 12.115 78.74-9.245 95.636 0 0 9.883 6.696 28.694 19.446 18.806 12.75 28.369 17.852 37.296 13.071 8.928-4.782 15.378-15.815 20.477 1.399l-7.875 1.33" fill="#fbb03b"/><path d="M152.921 302.896s29.215-6.153 5.123-112.539l13.42-.306s22.057 102.708-8.31 118.544l-10.233-5.699" fill="#f7931e"/><path d="M101.31 336.33s0-.024.003-.071l-.003.071m.003-.071c1.173-31.594 13.986-40.235 27.646-40.235 8.672 0 17.685 3.48 24.28 6.779a3.23 3.23 0 01-.318.093l10.232 5.699c-12.596-6.56-22.622-9.151-30.613-9.151-29.36 0-31.155 35.02-31.227 36.815" fill="#c98d2f"/><path d="M163.153 308.595l-10.232-5.699s.112-.024.318-.093c5.937 2.969 9.914 5.792 9.914 5.792" fill="#c67618"/><path d="M238.115 345.356s.018-.063.056-.172c.986-2.327 1.749-3.033 2.312-3.033.216 0 .402.103.561.26.235.293.47.754.701 1.43l7.875-1.33.268 1.32-.117.014c-.839.073-1.672.111-2.496.111h-.171c-.693-.005-1.579-.059-2.467-.059-1.012 0-2.026.07-2.768.357-.333.131-.689.4-1.052.752l-2.702.35" fill="#c0a690"/><path d="M240.817 345.006c.363-.353.719-.62 1.052-.752.742-.287 1.756-.357 2.768-.357.888 0 1.774.054 2.467.059h.17c.825 0 1.658-.038 2.497-.11l-8.954 1.16" fill="#c0a690"/><path d="M238.17 345.184c.229-.688 1.134-3.192 2.17-3.192.23 0 .467.124.704.419-.159-.157-.345-.26-.561-.26-.563 0-1.326.706-2.312 3.033" fill="#c98d2f"/><path d="M324.415 342.005s-.055-.514-.118-1.456l.118 1.456" fill="#ccc"/><path d="M324.415 342.005s-4.603-2.982-12-2.982c-3.699 0-8.096.745-12.97 2.982 0 0 7.262-4.32 15.17-4.32 3.272 0 6.653.74 9.68 2.828l.002.036c.063.942.118 1.456.118 1.456" fill="#c98d2f"/><path d="M278.801 286.852c-9.096-.001-17.096-5.093-17.51-5.363a30.101 30.101 0 009.073 2.648c1.46.204 2.865.295 4.212.295 10.18 0 16.913-5.19 17.384-5.563l.028-.02 1.285 2.182c-4.482 4.378-9.632 5.821-14.472 5.821" fill="#c0a690"/><path d="M270.364 284.137a30.101 30.101 0 01-9.073-2.648l-.018-.01c3.203 1.432 6.248 2.261 9.091 2.658m21.596-5.268a1.36 1.36 0 00.027-.021l.001.001-.028.02M249.888 326.341a1 1 0 110-2 1 1 0 010 2" fill="#c0a690"/><path d="M244.479 334.544l-10.282-11.943 10.71-1.674" fill="#7d7b7d"/><path d="M348.79 265.005v64.801l-104.311 4.738-2.583-64.147 106.893-5.392" fill="#979397"/><path d="M348.79 329.806l-104.311 4.738-10.282-11.943.336 3.683 9.704 11.375 103.739-4.686.813-3.167" fill="#636364"/><path d="M268.164 336.416c2.55-2.392 4.628-5.263 6.719-8.348 3.15-4.65 8.414-6.634 13.776-4.519 3.948 1.56 7.489 4.959 9.166 8.87.599 1.398.748 2.687.566 3.857-10.076-.003-23.516 5.823-30.227.14" fill="#f0d0b4"/><path d="M235.336 300.63l5.664-1.693 1.393 8.58-6.286 1.227-.771-8.113" fill="#f7931e"/><path d="M243.855 293.927c-1.418 3.409-.423 7.277 2.208 8.598 2.63 1.322 5.262 5.384 5.846 9.028l.299 1.856c.584 3.643 3.235 6.395 5.888 6.116 2.655-.278 3.964-3.4 2.912-6.937l-.815-2.745c-1.053-3.539.843-5.202 4.214-3.696l8.716 3.894c3.369 1.506 7.148.691 8.396-1.809 1.249-2.501-.532-5.672-3.956-7.047l-8.87-3.558c-3.425-1.375-3.221-2.79.452-3.144l5.344-.516c3.672-.355 6.732-2.47 6.798-4.702.065-2.232-2.896-3.856-6.576-3.609l-12.031.804c-3.683.245-5.412-1.7-3.844-4.325 1.568-2.622.888-5.974-1.51-7.444-2.402-1.471-5.52.113-6.938 3.52l-6.533 15.716" fill="#f0d0b4"/><path d="M241.896 293.07s-56.057-20.374-86.557-91.8l-20.06 45.98s35.95 57.686 109.114 68.929l-2.497-23.11" fill="#fbb03b"/><path d="M245.28 58.965l4.07-10.814-1.3-.49-4.07 10.815M238.47 57.623l3.071-11.099-1.338-.37-3.074 11.098M226.693 56.28l.576-11.503-1.388-.069-.576 11.503M221.508 56.495l-1.612-11.403-1.376.195 1.612 11.402M216.42 57.02l-3.23-11.053-1.334.389 3.23 11.053M211.205 58.136l-4.857-10.441-1.259.586 4.856 10.442M204.836 59.944l-4.857-10.441-1.26.586 4.857 10.44M232.297 56.66l2.164-11.257-1.365-.262-2.164 11.256M294.005 147.572s14.815-27.619-12.805-63.013l6.844 61.49 5.961 1.523" fill="#a9824f"/><path d="M215.317 54.208c38.923-3.761 73.962 24.467 78.256 63.05a69.033 69.033 0 01-2.224 26.677l.02-.003s39.716 49.193-1.233 84.868c0 0-7.09 16.437-46.488 20.547-39.49 3.525-50.057-11.216-50.057-11.216C145.656 211.052 163.9 162 163.9 162l.02-.005c-6.012-9.076-10.03-19.631-11.309-31.11-4.295-38.584 23.779-72.913 62.705-76.677" fill="#f0d0b4"/><path d="M242.527 249.468c.385-.036.746-.083 1.121-.121.368-.034.719-.056 1.095-.094l-2.216.215" fill="#f0d0b4"/><path d="M160.805 190.295c-.7-7.194-.124-13.695.712-18.643-.836 4.95-1.41 11.45-.71 18.643h-.002" fill="#86c151"/><path d="M291.084 227.957l.05-.044-.05.044m7.609-8.232l.062-.08-.062.08m.063-.081l.057-.077c-.018.026-.037.05-.057.077m.067-.09a.39.39 0 00.028-.037l-.028.038m.037-.05l.015-.02-.015.02m.028-.037a.417.417 0 00.019-.025l-.019.025m.036-.048a.116.116 0 01.012-.015l-.012.015m.032-.043a.074.074 0 00.008-.01c-.003.002-.005.008-.008.01m.033-.044l.007-.009-.007.01m.032-.045l.006-.006-.006.006m.031-.04l.005-.008-.005.008m.063-.086l.004-.004-.004.004" fill="#efad4a"/><path d="M291.133 227.913a64.522 64.522 0 010 0" fill="#ec9533"/><path d="M240.793 249.573l.032-.002-.032.002m.067-.005h.01-.01M286.611 233.445l.01-.01-.01.01m.01-.01l.011-.012-.01.012m.013-.014l.008-.009-.008.01m.017-.018c0-.001.001-.003.003-.003l-.003.003m.01-.01c0-.002.003-.003.005-.005l-.006.004m.011-.009l.005-.007-.005.007m.01-.01l.007-.007a.016.016 0 00-.006.006m.061-.062l.001-.002-.001.002m-103.083-1.791l-.005-.004c.003.001.003.003.005.004m-.045-.035c-.004-.004-.008-.008-.012-.01l.012.01m-.048-.038l-.016-.012.016.012m-.05-.039a.256.256 0 00-.022-.017c.01.006.013.009.023.017m-.051-.04l-.05-.04.05.04m-.061-.05l-.042-.031.042.032m-.056-.044l-.04-.032.04.032m-.052-.042a.999.999 0 00-.044-.034c.014.01.029.024.044.034m-.052-.041l-.052-.041.052.041m106.878-2.371l.002-.002-.002.002m.008-.017c0-.001.002-.001.002-.003 0 .002-.002.002-.002.003m.002-.003l.001-.001-.001.001m.04-.036c.005-.004.008-.006.013-.012l-.013.012m.089-.078l.016-.014a.141.141 0 01-.016.014m.045-.04l.022-.018c-.007.004-.015.012-.022.018m.044-.038l.018-.016-.018.016m.04-.036l.032-.028-.032.028m.047-.041l.024-.02-.024.02m.027-.023l.05-.045-.05.045m.061-.054l.077-.068-.077.068m.09-.08a47.14 47.14 0 010 0M231.959 249.892c-29.94 0-38.368-11.761-38.368-11.761-.022-.014-.042-.024-.063-.036.02.01.043.024.063.036 0 0 8.43 11.76 38.37 11.76a125.267 125.267 0 01-.003.001m-38.463-11.816l-.031-.017c.01.004.023.012.03.017m-.067-.039l-.026-.014.026.014m-.067-.038a.233.233 0 00-.019-.011c.01.005.011.007.019.01m-.067-.037l-.004-.002.004.002M257.904 247.078l.013-.003-.013.002m.08-.017a.213.213 0 00.028-.007l-.028.007m.039-.008c.013-.004.022-.005.036-.01-.014.005-.023.006-.036.01m.042-.01c12.428-2.78 20.23-6.91 25.02-10.535-4.79 3.626-12.59 7.754-25.02 10.534" fill="#e6c7ac"/><path d="M177.108 225.65c-11.05-11.331-15.216-24.18-16.303-35.355h.002c1.088 11.173 5.256 24.026 16.301 35.354 0 .003-.001-.002 0 0" fill="#ec9533"/><path d="M231.961 249.89c-29.94 0-38.37-11.76-38.37-11.76a1.506 1.506 0 00-.096-.054.228.228 0 00-.031-.017l-.037-.022-.026-.014c-.014-.01-.026-.015-.041-.024l-.019-.011-.048-.027-.004-.002c-3.568-2.034-6.765-4.191-9.628-6.439-.002-.001-.002-.003-.005-.004-.015-.01-.025-.02-.04-.03l-.012-.011-.036-.028-.016-.012a.73.73 0 01-.033-.027l-.023-.017-.028-.023-.05-.04-.011-.01-.042-.031c-.005-.006-.009-.008-.014-.012l-.04-.032-.012-.01c-.015-.01-.03-.024-.044-.034l-.008-.007-.052-.041a66.1 66.1 0 01-6.087-5.502c-11.045-11.328-15.213-24.181-16.301-35.354-.7-7.194-.126-13.694.71-18.643a69.027 69.027 0 011.462-6.665c8.857 5.776 17.562 10.442 29.12 12.138 6.17.906 12.392 1.302 18.618 1.302 8.599 0 17.207-.755 25.704-1.967 21.308-3.036 48.006-6.635 60.038-25.07 8.146 13.369 21.401 42.4 2.66 67.769l-.004.004-.03.04-.028.038-.005.008-.025.034-.006.006-.025.035-.007.01-.025.033a.074.074 0 01-.008.01l-.02.028a.116.116 0 00-.012.015.335.335 0 01-.017.023.417.417 0 01-.019.025l-.013.017a.19.19 0 01-.015.02c-.003.003-.007.01-.01.012a.39.39 0 01-.027.038l-.01.012-.057.077-.001.001-.062.08-.001.003a57.199 57.199 0 01-3.73 4.42 63.716 63.716 0 01-3.829 3.765l-.049.044c-.153.139-.31.28-.467.418-.002.004-.008.008-.012.012l-.077.068a.067.067 0 01-.01.009l-.051.045-.003.003-.024.02c-.004.004-.01.01-.015.013l-.032.028-.022.02-.018.016a.345.345 0 00-.022.02l-.022.018-.029.026-.016.014c-.01.009-.017.016-.03.025a.12.12 0 01-.013.012l-.033.03a.108.108 0 01-.013.011l-.039.035-.001.001c0 .002-.002.002-.002.003-.001.003-.002.008-.006.015l-.002.002c-.097.215-.958 2.015-3.38 4.488l-.001.002-.055.056-.006.006-.006.004-.005.007c-.003.001-.004.004-.005.005l-.006.004a.035.035 0 01-.006.008.003.003 0 00-.003.003l-.01.008a.058.058 0 01-.007.01h-.003l-.01.013-.011.01-.002.002a33.182 33.182 0 01-3.524 3.06c-4.79 3.625-12.592 7.754-25.02 10.534-.001.002-.004.002-.006.002l-.036.009-.011.001a.213.213 0 01-.028.007l-.02.004a.1.1 0 01-.021.005l-.026.006-.013.002-.035.008a.019.019 0 00-.008.003c-4.197.93-8.92 1.707-14.228 2.26-.937.083-1.858.156-2.764.22h-.009a.282.282 0 01-.035.003l-.032.002c-.002 0-.009 0-.01.002-1.242.085-2.452.153-3.634.204-1.796.076-3.526.112-5.188.112" fill="#e6c7ac"/><path d="M282.965 181.803l-.258.116c-2.628 1.166-24.934 10.645-50.518 10.638-9.249.002-18.922-1.234-28.258-4.525a1 1 0 00-.664 1.887c9.597 3.381 19.497 4.638 28.922 4.638 27.808-.008 51.54-10.91 51.611-10.936.501-.23.721-.824.492-1.326a1.002 1.002 0 00-1.327-.492M272.759 200.659l.018.028c.25.353 2.482 3.864 2.466 7.833-.011 2.4-.75 4.947-3.218 7.35-2.473 2.4-6.773 4.646-13.924 6.087-5.538 1.118-10.03 1.608-13.649 1.608-3.359 0-5.96-.422-7.953-1.136-2.988-1.08-4.624-2.741-5.628-4.814-.998-2.076-1.298-4.63-1.295-7.323 0-.364.005-.73.015-1.099a1 1 0 00-1.999-.053c-.01.384-.016.768-.016 1.152 0 1.89.132 3.779.572 5.576.65 2.69 2.05 5.203 4.672 6.953 2.619 1.755 6.35 2.743 11.632 2.744 3.799 0 8.412-.51 14.045-1.648 7.382-1.492 12.054-3.841 14.919-6.61 2.87-2.766 3.837-5.96 3.827-8.787-.02-5.005-2.802-8.924-2.846-9.007a.998.998 0 00-1.392-.246.998.998 0 00-.246 1.392M261.604 197.061s-10.115 4.54-24.828 2.264c0 0 17.027 5.97 24.828-2.264" fill="#baa08c"/><path d="M289.197 185.868s3.85-13.832-10.525-6.524c0 0 11.76-5.155 10.525 6.524M207.385 183.541s-16.453-2.332-6.388 11.316c0 0-7.281-11.258 6.388-11.316" fill="#baa08c"/><path d="M162.317 87.153S149.66 129.17 163.901 162l-4.325.164s-21.904-39.487 2.741-75.01" fill="#a9824f"/><path d="M160.028 145.839s-6.973-15.21-20.96-5.962c-17.453 11.536 10.072 23.18 10.072 23.18s8.699 3.8 4.36 12.571c-4.341 8.765-4.73 12.09-1.473 13.55 3.252 1.453 10.528-.837 11.421-6.254 3.87-23.372-3.42-37.085-3.42-37.085" fill="#f0d0b4"/><path d="M159.487 162.077s-10.758-30.658-13.072-7.372c0 0 3.926-12.754 13.072 7.372" fill="#baa08c"/><path d="M159.576 162.164s-8.18-15.453-6.284 3.777c0 0 .068-12.25 6.284-3.777M160.593 187.448s4.48-2.275 5.894-4.819c0 0-.959 4.24-5.719 7.375l-.175-2.556M229.297 167.317s21.848 24.923 39.23-7.598c0 0-15.092 21.278-39.23 7.598M291.495 227.583s-21.815 30.002-84.76 19.18c0 0 56.338 18.612 86.538-14.491l-1.778-4.69" fill="#baa08c"/><path d="M260.755 139.364c-.594-2.792 1.344-5.499 4.341-6.05 3.005-.554 5.91 1.255 6.51 4.053.58 2.793-1.36 5.501-4.357 6.056-2.997.553-5.905-1.267-6.494-4.059" fill="#6abc45"/><path d="M263.732 138.877c-.308-1.434.692-2.817 2.227-3.109 1.541-.283 3.033.648 3.341 2.084.301 1.433-.699 2.828-2.237 3.11-1.536.283-3.032-.654-3.331-2.085" fill="#231f20"/><path d="M267.057 136.896c-.156-.73.352-1.43 1.131-1.573.781-.143 1.536.328 1.692 1.054.156.728-.352 1.435-1.13 1.582-.783.138-1.54-.336-1.693-1.063" fill="#fff"/><path d="M199.219 147.284c-.782-3.672 1.768-7.23 5.71-7.956 3.948-.73 7.768 1.65 8.558 5.328.764 3.673-1.79 7.235-5.73 7.964-3.94.727-7.762-1.664-8.538-5.336" fill="#6abc45"/><path d="M203.136 146.643c-.404-1.887.905-3.706 2.93-4.088 2.022-.37 3.983.853 4.39 2.738.396 1.887-.917 3.72-2.94 4.088-2.024.376-3.988-.857-4.38-2.738" fill="#231f20"/><path d="M207.505 144.039c-.202-.96.464-1.88 1.49-2.071 1.024-.187 2.021.433 2.224 1.39.202.955-.462 1.885-1.487 2.075-1.03.184-2.024-.441-2.227-1.394" fill="#fff"/><path d="M258.825 149.015c-2.849 0-5.393-2.075-5.877-4.966l-1.481-8.809c-.538-3.204 1.64-6.28 4.84-6.835l26.302-4.572a5.846 5.846 0 016.765 4.817l1.511 9.333c.522 3.208-1.677 6.249-4.885 6.762l-26.243 4.195c-.312.05-.624.075-.932.075m7.358-15.8c-.358 0-.722.032-1.087.098-2.997.552-4.935 3.259-4.341 6.051.517 2.455 2.828 4.159 5.416 4.159.356 0 .717-.034 1.078-.1 2.996-.555 4.936-3.263 4.358-6.056-.528-2.459-2.834-4.152-5.424-4.152" fill="#f6e3d2"/><path d="M266.17 143.523c-2.587 0-4.898-1.704-5.415-4.159-.594-2.792 1.344-5.499 4.341-6.05.365-.067.73-.1 1.087-.1 2.59 0 4.896 1.694 5.424 4.153.578 2.793-1.362 5.501-4.358 6.056-.361.066-.722.1-1.078.1m.341-7.806a3.13 3.13 0 00-.553.051c-1.535.292-2.535 1.675-2.227 3.11.263 1.258 1.45 2.134 2.777 2.134.182 0 .368-.016.554-.05 1.538-.282 2.538-1.677 2.237-3.11l-.024-.1c.465-.293.721-.828.604-1.375-.137-.638-.737-1.08-1.412-1.08a1.54 1.54 0 00-.28.026 1.45 1.45 0 00-.868.504c-.259-.071-.53-.11-.808-.11" fill="var(--eyecol)"/><path d="M266.51 141.012c-1.329 0-2.515-.876-2.778-2.135-.308-1.434.692-2.817 2.227-3.109a3.061 3.061 0 011.361.059 1.263 1.263 0 00-.263 1.069c.136.641.74 1.087 1.419 1.087a1.5 1.5 0 00.8-.23l.024.099c.301 1.433-.699 2.828-2.237 3.11a3.02 3.02 0 01-.554.05" fill="#7b7979"/><path d="M268.476 137.983c-.679 0-1.283-.446-1.419-1.087a1.263 1.263 0 01.263-1.07 1.45 1.45 0 01.868-.503 1.54 1.54 0 01.28-.026c.675 0 1.275.442 1.412 1.08.117.547-.139 1.082-.604 1.375a1.5 1.5 0 01-.8.23" fill="#fff"/><path d="M188.184 160.412c-2.941 0-5.65-2.157-6.22-5.093l-2.727-14.019c-.62-3.19 1.52-6.032 4.755-6.316l43.117-3.788c.176-.015.351-.023.526-.023 3.038 0 5.816 2.303 6.308 5.335l1.934 11.867a5.684 5.684 0 01-4.905 6.581l-42.024 5.407c-.255.033-.51.049-.764.049m18.175-21.215c-.471 0-.95.043-1.43.131-3.942.727-6.492 4.284-5.71 7.956.682 3.228 3.72 5.465 7.121 5.465.467 0 .941-.041 1.417-.129 3.94-.73 6.494-4.29 5.73-7.964-.694-3.23-3.726-5.459-7.128-5.459" fill="#f6e3d2"/><path d="M206.34 152.75c-3.401 0-6.439-2.238-7.121-5.466-.782-3.672 1.768-7.23 5.71-7.956.48-.088.959-.13 1.43-.13 3.402 0 6.434 2.227 7.128 5.458.764 3.673-1.79 7.235-5.73 7.964-.476.088-.95.13-1.417.13m.45-10.262c-.24 0-.482.023-.725.067-2.024.382-3.333 2.201-2.929 4.088.345 1.653 1.903 2.806 3.65 2.806.24 0 .485-.022.73-.068 2.023-.368 3.336-2.201 2.94-4.088l-.03-.13c.61-.387.945-1.088.793-1.806-.179-.841-.972-1.422-1.858-1.422-.12 0-.244.012-.366.033a1.916 1.916 0 00-1.143.665 3.952 3.952 0 00-1.061-.145" fill="var(--eyecol)"/><path d="M206.785 149.45c-1.746 0-3.304-1.154-3.649-2.807-.404-1.887.905-3.706 2.93-4.088a3.952 3.952 0 011.787.079c-.314.385-.457.889-.348 1.405.179.841.975 1.426 1.867 1.426a1.967 1.967 0 001.053-.303c.011.045.022.087.031.131.396 1.887-.917 3.72-2.94 4.088-.245.046-.49.068-.73.068" fill="#7b7979"/><path d="M209.372 145.465c-.892 0-1.688-.585-1.867-1.426-.109-.516.034-1.02.347-1.406.27-.332.668-.577 1.143-.665.122-.021.246-.033.366-.033.886 0 1.679.581 1.858 1.422.152.718-.183 1.419-.794 1.806a1.967 1.967 0 01-1.053.302" fill="#fff"/><path d="M232.125 142.864l-2.041-10.613-48.513 5.14 2.56 10.557-5.162.143-3.63-14.964 59.205-6.351 2.464 15.19-4.883.898M289.044 134.29l-1.456-9.215-35.121 5.268 1.457 9.141-2.932.296-2.287-13.77 41.323-6.195 1.959 14.177-2.943.297" fill="#72594b"/><path d="M242.664 131.51c4.03-.39 7.497 1.045 9.53 2.17v1.67c0 .445.15.862.4 1.213l-1.542 1.702c-.039-.026-3.685-2.809-7.927-2.372-2.592.266-4.982 1.703-7.109 4.276l-3.743-2.689c2.956-3.573 6.451-5.581 10.391-5.97" fill="#72594b"/><path d="M159.27 188.167s12.907-3.186 9.722-22.459l-3.687-1.677-4.024 2.849-2.01 21.287" fill="#f0d0b4"/><path d="M285.953 110.273l-.092 8.354s-19.517-4.64-34.014 4.209l-2.656-9.767s20.164-9.722 36.762-2.796M175.044 122.819l3.707 7.972s25.454-14.034 49.825-9.746l-.27-9.289s-26.53-6.55-53.262 11.063" fill="#a9824f"/><path d="M244 292.717l.393 23.462-9.084-1.672 2.21-23.316 6.481 1.526" fill="#f7931e"/><path d="M164.461 286.715c-14.657-11.887-22.102-26.522-25.09-33.68 4.728 6.233 13.568 16.717 26.56 27.465a63.584 63.584 0 01-1.47 6.215" fill="#c98d2f"/><path d="M172.945 292.717a78.753 78.753 0 01-8.484-6.002 63.584 63.584 0 001.47-6.215 176.56 176.56 0 004 3.21 231.023 231.023 0 005.145 4.297c-.532 2.061-2.13 4.71-2.13 4.71" fill="#c67618"/><path d="M169.93 283.71a176.56 176.56 0 01-4-3.21c-12.991-10.748-21.831-21.232-26.56-27.465-1.135-2.72-1.627-4.36-1.627-4.36 5.94 11.689 23.416 27.522 32.188 35.036" fill="#c98d2f"/><path d="M363.765 293.43c1.599 3.326.816 7.245-1.738 8.705-2.558 1.461-4.964 5.661-5.352 9.332l-.199 1.866c-.388 3.67-2.885 6.563-5.55 6.427-2.663-.135-4.14-3.181-3.28-6.77l.663-2.785c.86-3.589-1.124-5.146-4.405-3.461l-8.495 4.357c-3.281 1.686-7.1 1.076-8.482-1.354-1.38-2.43.224-5.69 3.57-7.247l8.664-4.033c3.347-1.558 3.068-2.959-.62-3.115l-5.364-.227c-3.685-.157-6.854-2.104-7.038-4.328-.188-2.225 2.678-4.008 6.369-3.96l12.055.154c3.689.048 5.312-1.988 3.606-4.524-1.705-2.536-1.208-5.919 1.107-7.516 2.315-1.599 5.519-.186 7.117 3.14l7.372 15.338" fill="#f0d0b4"/></svg>
